<mxfile host="app.diagrams.net" modified="2021-06-15T17:29:40.306Z" agent="5.0 (X11; Linux x86_64) AppleWebKit/537.36 (KHTML, like Gecko) Chrome/91.0.4472.101 Safari/537.36" etag="EujsD-o6fLoDSdiwlByU" version="14.7.8" type="github">
  <diagram id="M-cFuhooy4iovFbQbYCS" name="Page-1">
    <mxGraphModel dx="985" dy="627" grid="1" gridSize="10" guides="1" tooltips="1" connect="1" arrows="1" fold="1" page="1" pageScale="1" pageWidth="827" pageHeight="1169" math="0" shadow="0">
      <root>
        <mxCell id="0" />
        <mxCell id="1" parent="0" />
        <mxCell id="BGFPd9d43HTViF0jOLdN-33" style="edgeStyle=orthogonalEdgeStyle;rounded=0;orthogonalLoop=1;jettySize=auto;html=1;exitX=0.5;exitY=1;exitDx=0;exitDy=0;" edge="1" parent="1" source="BGFPd9d43HTViF0jOLdN-14" target="BGFPd9d43HTViF0jOLdN-15">
          <mxGeometry relative="1" as="geometry" />
        </mxCell>
        <mxCell id="BGFPd9d43HTViF0jOLdN-14" value="" style="ellipse;whiteSpace=wrap;html=1;aspect=fixed;" vertex="1" parent="1">
          <mxGeometry x="270" width="50" height="50" as="geometry" />
        </mxCell>
        <mxCell id="BGFPd9d43HTViF0jOLdN-34" style="edgeStyle=orthogonalEdgeStyle;rounded=0;orthogonalLoop=1;jettySize=auto;html=1;exitX=0.5;exitY=1;exitDx=0;exitDy=0;" edge="1" parent="1" source="BGFPd9d43HTViF0jOLdN-15" target="BGFPd9d43HTViF0jOLdN-19">
          <mxGeometry relative="1" as="geometry" />
        </mxCell>
        <mxCell id="BGFPd9d43HTViF0jOLdN-15" value="" style="ellipse;whiteSpace=wrap;html=1;aspect=fixed;" vertex="1" parent="1">
          <mxGeometry x="270" y="80" width="50" height="50" as="geometry" />
        </mxCell>
        <mxCell id="BGFPd9d43HTViF0jOLdN-36" style="edgeStyle=orthogonalEdgeStyle;rounded=0;orthogonalLoop=1;jettySize=auto;html=1;exitX=0.5;exitY=1;exitDx=0;exitDy=0;entryX=0.5;entryY=0;entryDx=0;entryDy=0;" edge="1" parent="1" source="BGFPd9d43HTViF0jOLdN-19" target="BGFPd9d43HTViF0jOLdN-23">
          <mxGeometry relative="1" as="geometry" />
        </mxCell>
        <mxCell id="BGFPd9d43HTViF0jOLdN-19" value="" style="ellipse;whiteSpace=wrap;html=1;aspect=fixed;" vertex="1" parent="1">
          <mxGeometry x="270" y="160" width="50" height="50" as="geometry" />
        </mxCell>
        <mxCell id="BGFPd9d43HTViF0jOLdN-37" style="edgeStyle=orthogonalEdgeStyle;rounded=0;orthogonalLoop=1;jettySize=auto;html=1;exitX=0.5;exitY=1;exitDx=0;exitDy=0;entryX=0.5;entryY=0;entryDx=0;entryDy=0;" edge="1" parent="1" source="BGFPd9d43HTViF0jOLdN-23" target="BGFPd9d43HTViF0jOLdN-24">
          <mxGeometry relative="1" as="geometry" />
        </mxCell>
        <mxCell id="BGFPd9d43HTViF0jOLdN-23" value="" style="ellipse;whiteSpace=wrap;html=1;aspect=fixed;" vertex="1" parent="1">
          <mxGeometry x="270" y="250" width="50" height="50" as="geometry" />
        </mxCell>
        <mxCell id="BGFPd9d43HTViF0jOLdN-39" style="edgeStyle=orthogonalEdgeStyle;rounded=0;orthogonalLoop=1;jettySize=auto;html=1;exitX=0.5;exitY=1;exitDx=0;exitDy=0;entryX=0.5;entryY=0;entryDx=0;entryDy=0;" edge="1" parent="1" source="BGFPd9d43HTViF0jOLdN-24" target="BGFPd9d43HTViF0jOLdN-25">
          <mxGeometry relative="1" as="geometry" />
        </mxCell>
        <mxCell id="BGFPd9d43HTViF0jOLdN-24" value="" style="ellipse;whiteSpace=wrap;html=1;aspect=fixed;" vertex="1" parent="1">
          <mxGeometry x="270" y="330" width="50" height="50" as="geometry" />
        </mxCell>
        <mxCell id="BGFPd9d43HTViF0jOLdN-40" style="edgeStyle=orthogonalEdgeStyle;rounded=0;orthogonalLoop=1;jettySize=auto;html=1;exitX=0.5;exitY=1;exitDx=0;exitDy=0;entryX=0.5;entryY=0;entryDx=0;entryDy=0;" edge="1" parent="1" source="BGFPd9d43HTViF0jOLdN-25" target="BGFPd9d43HTViF0jOLdN-26">
          <mxGeometry relative="1" as="geometry" />
        </mxCell>
        <mxCell id="BGFPd9d43HTViF0jOLdN-25" value="" style="ellipse;whiteSpace=wrap;html=1;aspect=fixed;" vertex="1" parent="1">
          <mxGeometry x="270" y="410" width="50" height="50" as="geometry" />
        </mxCell>
        <mxCell id="BGFPd9d43HTViF0jOLdN-42" style="edgeStyle=orthogonalEdgeStyle;rounded=0;orthogonalLoop=1;jettySize=auto;html=1;exitX=0.5;exitY=1;exitDx=0;exitDy=0;entryX=0.5;entryY=0;entryDx=0;entryDy=0;" edge="1" parent="1" source="BGFPd9d43HTViF0jOLdN-26" target="BGFPd9d43HTViF0jOLdN-27">
          <mxGeometry relative="1" as="geometry" />
        </mxCell>
        <mxCell id="BGFPd9d43HTViF0jOLdN-26" value="" style="ellipse;whiteSpace=wrap;html=1;aspect=fixed;" vertex="1" parent="1">
          <mxGeometry x="270" y="500" width="50" height="50" as="geometry" />
        </mxCell>
        <mxCell id="BGFPd9d43HTViF0jOLdN-43" style="edgeStyle=orthogonalEdgeStyle;rounded=0;orthogonalLoop=1;jettySize=auto;html=1;exitX=0.5;exitY=1;exitDx=0;exitDy=0;" edge="1" parent="1" source="BGFPd9d43HTViF0jOLdN-27" target="BGFPd9d43HTViF0jOLdN-28">
          <mxGeometry relative="1" as="geometry" />
        </mxCell>
        <mxCell id="BGFPd9d43HTViF0jOLdN-27" value="" style="ellipse;whiteSpace=wrap;html=1;aspect=fixed;" vertex="1" parent="1">
          <mxGeometry x="270" y="580" width="50" height="50" as="geometry" />
        </mxCell>
        <mxCell id="BGFPd9d43HTViF0jOLdN-45" style="edgeStyle=orthogonalEdgeStyle;rounded=0;orthogonalLoop=1;jettySize=auto;html=1;exitX=0.5;exitY=1;exitDx=0;exitDy=0;entryX=0.5;entryY=0;entryDx=0;entryDy=0;" edge="1" parent="1" source="BGFPd9d43HTViF0jOLdN-28" target="BGFPd9d43HTViF0jOLdN-29">
          <mxGeometry relative="1" as="geometry" />
        </mxCell>
        <mxCell id="BGFPd9d43HTViF0jOLdN-28" value="" style="ellipse;whiteSpace=wrap;html=1;aspect=fixed;" vertex="1" parent="1">
          <mxGeometry x="270" y="660" width="50" height="50" as="geometry" />
        </mxCell>
        <mxCell id="BGFPd9d43HTViF0jOLdN-46" style="edgeStyle=orthogonalEdgeStyle;rounded=0;orthogonalLoop=1;jettySize=auto;html=1;exitX=0.5;exitY=1;exitDx=0;exitDy=0;entryX=0.5;entryY=0;entryDx=0;entryDy=0;" edge="1" parent="1" source="BGFPd9d43HTViF0jOLdN-29" target="BGFPd9d43HTViF0jOLdN-30">
          <mxGeometry relative="1" as="geometry" />
        </mxCell>
        <mxCell id="BGFPd9d43HTViF0jOLdN-29" value="" style="ellipse;whiteSpace=wrap;html=1;aspect=fixed;" vertex="1" parent="1">
          <mxGeometry x="270" y="750" width="50" height="50" as="geometry" />
        </mxCell>
        <mxCell id="BGFPd9d43HTViF0jOLdN-48" style="edgeStyle=orthogonalEdgeStyle;rounded=0;orthogonalLoop=1;jettySize=auto;html=1;exitX=0.5;exitY=1;exitDx=0;exitDy=0;" edge="1" parent="1" source="BGFPd9d43HTViF0jOLdN-30" target="BGFPd9d43HTViF0jOLdN-31">
          <mxGeometry relative="1" as="geometry" />
        </mxCell>
        <mxCell id="BGFPd9d43HTViF0jOLdN-30" value="" style="ellipse;whiteSpace=wrap;html=1;aspect=fixed;" vertex="1" parent="1">
          <mxGeometry x="270" y="830" width="50" height="50" as="geometry" />
        </mxCell>
        <mxCell id="BGFPd9d43HTViF0jOLdN-52" style="edgeStyle=orthogonalEdgeStyle;rounded=0;orthogonalLoop=1;jettySize=auto;html=1;exitX=0;exitY=1;exitDx=0;exitDy=0;entryX=0.5;entryY=0;entryDx=0;entryDy=0;" edge="1" parent="1" source="BGFPd9d43HTViF0jOLdN-31" target="BGFPd9d43HTViF0jOLdN-50">
          <mxGeometry relative="1" as="geometry" />
        </mxCell>
        <mxCell id="BGFPd9d43HTViF0jOLdN-57" style="edgeStyle=orthogonalEdgeStyle;rounded=0;orthogonalLoop=1;jettySize=auto;html=1;exitX=0.5;exitY=1;exitDx=0;exitDy=0;entryX=0.5;entryY=0;entryDx=0;entryDy=0;" edge="1" parent="1" source="BGFPd9d43HTViF0jOLdN-31" target="BGFPd9d43HTViF0jOLdN-55">
          <mxGeometry relative="1" as="geometry" />
        </mxCell>
        <mxCell id="BGFPd9d43HTViF0jOLdN-31" value="" style="ellipse;whiteSpace=wrap;html=1;aspect=fixed;" vertex="1" parent="1">
          <mxGeometry x="270" y="910" width="50" height="50" as="geometry" />
        </mxCell>
        <mxCell id="BGFPd9d43HTViF0jOLdN-35" value="read(x)" style="text;html=1;align=center;verticalAlign=middle;resizable=0;points=[];autosize=1;strokeColor=none;" vertex="1" parent="1">
          <mxGeometry x="305" y="130" width="50" height="20" as="geometry" />
        </mxCell>
        <mxCell id="BGFPd9d43HTViF0jOLdN-38" value="abs(x)" style="text;html=1;align=center;verticalAlign=middle;resizable=0;points=[];autosize=1;strokeColor=none;" vertex="1" parent="1">
          <mxGeometry x="305" y="300" width="50" height="20" as="geometry" />
        </mxCell>
        <mxCell id="BGFPd9d43HTViF0jOLdN-41" value="read(y)" style="text;html=1;align=center;verticalAlign=middle;resizable=0;points=[];autosize=1;strokeColor=none;" vertex="1" parent="1">
          <mxGeometry x="305" y="470" width="50" height="20" as="geometry" />
        </mxCell>
        <mxCell id="BGFPd9d43HTViF0jOLdN-44" value="abs(y)" style="text;html=1;align=center;verticalAlign=middle;resizable=0;points=[];autosize=1;strokeColor=none;" vertex="1" parent="1">
          <mxGeometry x="305" y="630" width="50" height="20" as="geometry" />
        </mxCell>
        <mxCell id="BGFPd9d43HTViF0jOLdN-47" value="if(x == 0)" style="text;html=1;align=center;verticalAlign=middle;resizable=0;points=[];autosize=1;strokeColor=none;" vertex="1" parent="1">
          <mxGeometry x="300" y="800" width="60" height="20" as="geometry" />
        </mxCell>
        <mxCell id="BGFPd9d43HTViF0jOLdN-49" style="edgeStyle=orthogonalEdgeStyle;rounded=0;orthogonalLoop=1;jettySize=auto;html=1;exitX=0.5;exitY=1;exitDx=0;exitDy=0;" edge="1" parent="1" source="BGFPd9d43HTViF0jOLdN-50" target="BGFPd9d43HTViF0jOLdN-51">
          <mxGeometry relative="1" as="geometry" />
        </mxCell>
        <mxCell id="BGFPd9d43HTViF0jOLdN-50" value="" style="ellipse;whiteSpace=wrap;html=1;aspect=fixed;" vertex="1" parent="1">
          <mxGeometry x="140" y="980" width="50" height="50" as="geometry" />
        </mxCell>
        <mxCell id="BGFPd9d43HTViF0jOLdN-51" value="" style="ellipse;whiteSpace=wrap;html=1;aspect=fixed;" vertex="1" parent="1">
          <mxGeometry x="140" y="1060" width="50" height="50" as="geometry" />
        </mxCell>
        <mxCell id="BGFPd9d43HTViF0jOLdN-53" value="return (y)" style="text;html=1;align=center;verticalAlign=middle;resizable=0;points=[];autosize=1;strokeColor=none;" vertex="1" parent="1">
          <mxGeometry x="80" y="1040" width="60" height="20" as="geometry" />
        </mxCell>
        <mxCell id="BGFPd9d43HTViF0jOLdN-54" style="edgeStyle=orthogonalEdgeStyle;rounded=0;orthogonalLoop=1;jettySize=auto;html=1;exitX=0.5;exitY=1;exitDx=0;exitDy=0;" edge="1" parent="1" source="BGFPd9d43HTViF0jOLdN-55" target="BGFPd9d43HTViF0jOLdN-56">
          <mxGeometry relative="1" as="geometry" />
        </mxCell>
        <mxCell id="BGFPd9d43HTViF0jOLdN-55" value="" style="ellipse;whiteSpace=wrap;html=1;aspect=fixed;" vertex="1" parent="1">
          <mxGeometry x="270" y="1110" width="50" height="50" as="geometry" />
        </mxCell>
        <mxCell id="BGFPd9d43HTViF0jOLdN-62" style="edgeStyle=orthogonalEdgeStyle;rounded=0;orthogonalLoop=1;jettySize=auto;html=1;exitX=0.5;exitY=1;exitDx=0;exitDy=0;" edge="1" parent="1" source="BGFPd9d43HTViF0jOLdN-56" target="BGFPd9d43HTViF0jOLdN-60">
          <mxGeometry relative="1" as="geometry" />
        </mxCell>
        <mxCell id="BGFPd9d43HTViF0jOLdN-56" value="" style="ellipse;whiteSpace=wrap;html=1;aspect=fixed;" vertex="1" parent="1">
          <mxGeometry x="270" y="1190" width="50" height="50" as="geometry" />
        </mxCell>
        <mxCell id="BGFPd9d43HTViF0jOLdN-58" value="if(y == 0)" style="text;html=1;align=center;verticalAlign=middle;resizable=0;points=[];autosize=1;strokeColor=none;" vertex="1" parent="1">
          <mxGeometry x="305" y="1160" width="60" height="20" as="geometry" />
        </mxCell>
        <mxCell id="BGFPd9d43HTViF0jOLdN-59" style="edgeStyle=orthogonalEdgeStyle;rounded=0;orthogonalLoop=1;jettySize=auto;html=1;exitX=0;exitY=0.5;exitDx=0;exitDy=0;" edge="1" parent="1" source="BGFPd9d43HTViF0jOLdN-60" target="BGFPd9d43HTViF0jOLdN-61">
          <mxGeometry relative="1" as="geometry" />
        </mxCell>
        <mxCell id="BGFPd9d43HTViF0jOLdN-71" style="edgeStyle=orthogonalEdgeStyle;rounded=0;orthogonalLoop=1;jettySize=auto;html=1;exitX=0.5;exitY=1;exitDx=0;exitDy=0;entryX=0.5;entryY=0;entryDx=0;entryDy=0;" edge="1" parent="1" source="BGFPd9d43HTViF0jOLdN-60" target="BGFPd9d43HTViF0jOLdN-69">
          <mxGeometry relative="1" as="geometry" />
        </mxCell>
        <mxCell id="BGFPd9d43HTViF0jOLdN-60" value="" style="ellipse;whiteSpace=wrap;html=1;aspect=fixed;" vertex="1" parent="1">
          <mxGeometry x="270" y="1280" width="50" height="50" as="geometry" />
        </mxCell>
        <mxCell id="BGFPd9d43HTViF0jOLdN-66" style="edgeStyle=orthogonalEdgeStyle;rounded=0;orthogonalLoop=1;jettySize=auto;html=1;exitX=0.5;exitY=1;exitDx=0;exitDy=0;entryX=0.5;entryY=0;entryDx=0;entryDy=0;" edge="1" parent="1" source="BGFPd9d43HTViF0jOLdN-61" target="BGFPd9d43HTViF0jOLdN-64">
          <mxGeometry relative="1" as="geometry" />
        </mxCell>
        <mxCell id="BGFPd9d43HTViF0jOLdN-61" value="" style="ellipse;whiteSpace=wrap;html=1;aspect=fixed;" vertex="1" parent="1">
          <mxGeometry x="140" y="1370" width="50" height="50" as="geometry" />
        </mxCell>
        <mxCell id="BGFPd9d43HTViF0jOLdN-64" value="" style="ellipse;whiteSpace=wrap;html=1;aspect=fixed;" vertex="1" parent="1">
          <mxGeometry x="140" y="1460" width="50" height="50" as="geometry" />
        </mxCell>
        <mxCell id="BGFPd9d43HTViF0jOLdN-67" value="return(x)" style="text;html=1;align=center;verticalAlign=middle;resizable=0;points=[];autosize=1;strokeColor=none;" vertex="1" parent="1">
          <mxGeometry x="90" y="1430" width="60" height="20" as="geometry" />
        </mxCell>
        <mxCell id="BGFPd9d43HTViF0jOLdN-68" style="edgeStyle=orthogonalEdgeStyle;rounded=0;orthogonalLoop=1;jettySize=auto;html=1;exitX=0.5;exitY=1;exitDx=0;exitDy=0;" edge="1" parent="1" source="BGFPd9d43HTViF0jOLdN-69" target="BGFPd9d43HTViF0jOLdN-70">
          <mxGeometry relative="1" as="geometry" />
        </mxCell>
        <mxCell id="BGFPd9d43HTViF0jOLdN-69" value="" style="ellipse;whiteSpace=wrap;html=1;aspect=fixed;" vertex="1" parent="1">
          <mxGeometry x="270" y="1520" width="50" height="50" as="geometry" />
        </mxCell>
        <mxCell id="BGFPd9d43HTViF0jOLdN-79" style="edgeStyle=orthogonalEdgeStyle;rounded=0;orthogonalLoop=1;jettySize=auto;html=1;exitX=0;exitY=0.5;exitDx=0;exitDy=0;entryX=0.5;entryY=0;entryDx=0;entryDy=0;" edge="1" parent="1" source="BGFPd9d43HTViF0jOLdN-70" target="BGFPd9d43HTViF0jOLdN-77">
          <mxGeometry relative="1" as="geometry" />
        </mxCell>
        <mxCell id="BGFPd9d43HTViF0jOLdN-70" value="" style="ellipse;whiteSpace=wrap;html=1;aspect=fixed;" vertex="1" parent="1">
          <mxGeometry x="270" y="1600" width="50" height="50" as="geometry" />
        </mxCell>
        <mxCell id="BGFPd9d43HTViF0jOLdN-72" value="while(x != y)" style="text;html=1;align=center;verticalAlign=middle;resizable=0;points=[];autosize=1;strokeColor=none;" vertex="1" parent="1">
          <mxGeometry x="305" y="1570" width="80" height="20" as="geometry" />
        </mxCell>
        <mxCell id="BGFPd9d43HTViF0jOLdN-73" style="edgeStyle=orthogonalEdgeStyle;rounded=0;orthogonalLoop=1;jettySize=auto;html=1;exitX=0;exitY=0.5;exitDx=0;exitDy=0;" edge="1" parent="1" source="BGFPd9d43HTViF0jOLdN-74" target="BGFPd9d43HTViF0jOLdN-75">
          <mxGeometry relative="1" as="geometry" />
        </mxCell>
        <mxCell id="BGFPd9d43HTViF0jOLdN-85" style="edgeStyle=orthogonalEdgeStyle;rounded=0;orthogonalLoop=1;jettySize=auto;html=1;exitX=1;exitY=0.5;exitDx=0;exitDy=0;" edge="1" parent="1" source="BGFPd9d43HTViF0jOLdN-74" target="BGFPd9d43HTViF0jOLdN-83">
          <mxGeometry relative="1" as="geometry" />
        </mxCell>
        <mxCell id="BGFPd9d43HTViF0jOLdN-74" value="" style="ellipse;whiteSpace=wrap;html=1;aspect=fixed;" vertex="1" parent="1">
          <mxGeometry x="160" y="1890" width="50" height="50" as="geometry" />
        </mxCell>
        <mxCell id="BGFPd9d43HTViF0jOLdN-92" style="edgeStyle=orthogonalEdgeStyle;rounded=0;orthogonalLoop=1;jettySize=auto;html=1;exitX=0.5;exitY=1;exitDx=0;exitDy=0;entryX=0.5;entryY=0;entryDx=0;entryDy=0;" edge="1" parent="1" source="BGFPd9d43HTViF0jOLdN-75" target="BGFPd9d43HTViF0jOLdN-87">
          <mxGeometry relative="1" as="geometry" />
        </mxCell>
        <mxCell id="BGFPd9d43HTViF0jOLdN-75" value="" style="ellipse;whiteSpace=wrap;html=1;aspect=fixed;" vertex="1" parent="1">
          <mxGeometry x="70" y="1980" width="50" height="50" as="geometry" />
        </mxCell>
        <mxCell id="BGFPd9d43HTViF0jOLdN-76" style="edgeStyle=orthogonalEdgeStyle;rounded=0;orthogonalLoop=1;jettySize=auto;html=1;exitX=0.5;exitY=1;exitDx=0;exitDy=0;" edge="1" parent="1" source="BGFPd9d43HTViF0jOLdN-77" target="BGFPd9d43HTViF0jOLdN-78">
          <mxGeometry relative="1" as="geometry" />
        </mxCell>
        <mxCell id="BGFPd9d43HTViF0jOLdN-77" value="" style="ellipse;whiteSpace=wrap;html=1;aspect=fixed;" vertex="1" parent="1">
          <mxGeometry x="160" y="1710" width="50" height="50" as="geometry" />
        </mxCell>
        <mxCell id="BGFPd9d43HTViF0jOLdN-81" style="edgeStyle=orthogonalEdgeStyle;rounded=0;orthogonalLoop=1;jettySize=auto;html=1;exitX=0.5;exitY=1;exitDx=0;exitDy=0;" edge="1" parent="1" source="BGFPd9d43HTViF0jOLdN-78" target="BGFPd9d43HTViF0jOLdN-74">
          <mxGeometry relative="1" as="geometry" />
        </mxCell>
        <mxCell id="BGFPd9d43HTViF0jOLdN-78" value="" style="ellipse;whiteSpace=wrap;html=1;aspect=fixed;" vertex="1" parent="1">
          <mxGeometry x="160" y="1790" width="50" height="50" as="geometry" />
        </mxCell>
        <mxCell id="BGFPd9d43HTViF0jOLdN-80" value="if(x &amp;gt; y)" style="text;html=1;align=center;verticalAlign=middle;resizable=0;points=[];autosize=1;strokeColor=none;" vertex="1" parent="1">
          <mxGeometry x="90" y="1760" width="60" height="20" as="geometry" />
        </mxCell>
        <mxCell id="BGFPd9d43HTViF0jOLdN-82" style="edgeStyle=orthogonalEdgeStyle;rounded=0;orthogonalLoop=1;jettySize=auto;html=1;exitX=0.5;exitY=1;exitDx=0;exitDy=0;" edge="1" parent="1" source="BGFPd9d43HTViF0jOLdN-83" target="BGFPd9d43HTViF0jOLdN-84">
          <mxGeometry relative="1" as="geometry" />
        </mxCell>
        <mxCell id="BGFPd9d43HTViF0jOLdN-83" value="" style="ellipse;whiteSpace=wrap;html=1;aspect=fixed;" vertex="1" parent="1">
          <mxGeometry x="250" y="1980" width="50" height="50" as="geometry" />
        </mxCell>
        <mxCell id="BGFPd9d43HTViF0jOLdN-84" value="" style="ellipse;whiteSpace=wrap;html=1;aspect=fixed;" vertex="1" parent="1">
          <mxGeometry x="250" y="2080" width="50" height="50" as="geometry" />
        </mxCell>
        <mxCell id="BGFPd9d43HTViF0jOLdN-86" style="edgeStyle=orthogonalEdgeStyle;rounded=0;orthogonalLoop=1;jettySize=auto;html=1;exitX=0.5;exitY=1;exitDx=0;exitDy=0;" edge="1" parent="1" source="BGFPd9d43HTViF0jOLdN-87" target="BGFPd9d43HTViF0jOLdN-88">
          <mxGeometry relative="1" as="geometry" />
        </mxCell>
        <mxCell id="BGFPd9d43HTViF0jOLdN-87" value="" style="ellipse;whiteSpace=wrap;html=1;aspect=fixed;" vertex="1" parent="1">
          <mxGeometry x="70" y="2080" width="50" height="50" as="geometry" />
        </mxCell>
        <mxCell id="BGFPd9d43HTViF0jOLdN-88" value="" style="ellipse;whiteSpace=wrap;html=1;aspect=fixed;" vertex="1" parent="1">
          <mxGeometry x="70" y="2160" width="50" height="50" as="geometry" />
        </mxCell>
        <mxCell id="BGFPd9d43HTViF0jOLdN-93" value="x = x -y" style="text;html=1;align=center;verticalAlign=middle;resizable=0;points=[];autosize=1;strokeColor=none;" vertex="1" parent="1">
          <mxGeometry x="30" y="2050" width="50" height="20" as="geometry" />
        </mxCell>
        <mxCell id="BGFPd9d43HTViF0jOLdN-94" value="y = y - x" style="text;html=1;align=center;verticalAlign=middle;resizable=0;points=[];autosize=1;strokeColor=none;" vertex="1" parent="1">
          <mxGeometry x="270" y="2040" width="60" height="20" as="geometry" />
        </mxCell>
      </root>
    </mxGraphModel>
  </diagram>
</mxfile>
